<svg width="216" height="49" viewBox="0 0 216 49" fill="none" xmlns="http://www.w3.org/2000/svg">
    <mask id="path-1-outside-1" maskUnits="userSpaceOnUse" x="0.213318" y="0.767998" width="216" height="49" fill="black">
    <rect fill="white" x="0.213318" y="0.767998" width="216" height="49"/>
    <path d="M28.5253 37.576C26.8613 37.576 25.6453 37.144 24.8773 36.28C24.1093 35.384 23.7253 34.216 23.7253 32.776C23.7253 31.304 24.4453 27.368 25.8853 20.968C23.1653 21.032 20.9893 21.288 19.3573 21.736C18.4293 26.248 17.0053 30.152 15.0853 33.448C14.0933 35.112 12.8933 36.424 11.4853 37.384C10.0773 38.376 8.54132 38.872 6.87732 38.872C5.21332 38.872 3.85332 38.312 2.79732 37.192C1.74132 36.104 1.21332 34.664 1.21332 32.872C1.21332 30.312 2.26932 27.912 4.38132 25.672C6.49332 23.4 9.16531 21.576 12.3973 20.2C12.6853 17.256 12.8293 14.856 12.8293 13C12.8293 11.112 12.6373 9.784 12.2533 9.016C11.9013 8.248 11.3253 7.864 10.5253 7.864C9.72531 7.864 8.66931 8.168 7.35732 8.776C6.04532 9.352 4.81332 10.136 3.66132 11.128L2.46132 9.4C3.61332 7.992 5.30932 6.664 7.54932 5.416C9.78932 4.136 11.9493 3.496 14.0293 3.496C18.2213 3.496 20.3173 6.68 20.3173 13.048C20.3173 14.552 20.1893 16.36 19.9333 18.472C22.0133 18.056 24.2373 17.784 26.6053 17.656C27.6933 12.6 28.2373 8.6 28.2373 5.656C28.2373 5.112 28.2053 4.696 28.1413 4.408C30.7013 3.416 33.2773 2.92 35.8693 2.92C35.9653 3.176 36.0133 3.624 36.0133 4.264C36.0133 6.248 35.2293 10.776 33.6613 17.848C37.5013 18.136 40.1253 18.52 41.5333 19C41.5653 19.128 41.5813 19.368 41.5813 19.72C41.5813 20.392 41.2773 21.24 40.6693 22.264C38.5893 21.624 36.0293 21.208 32.9893 21.016C31.8693 26.392 31.3093 29.88 31.3093 31.48C31.3093 33.048 31.6933 33.832 32.4613 33.832C32.8773 33.832 33.3253 33.752 33.8053 33.592L34.5253 35.464C32.2213 36.872 30.2213 37.576 28.5253 37.576ZM6.39731 34.264C7.42131 34.264 8.42931 33.384 9.42131 31.624C10.4133 29.864 11.2133 27.24 11.8213 23.752C10.0293 24.52 8.39731 25.72 6.92531 27.352C5.45331 28.984 4.71732 30.552 4.71732 32.056C4.71732 32.76 4.87731 33.304 5.19731 33.688C5.54931 34.072 5.94931 34.264 6.39731 34.264Z"/>
    <path d="M49.3472 18.136C48.0672 18.136 47.0432 19.208 46.2752 21.352C45.5072 23.464 45.1232 25.736 45.1232 28.168C45.1232 32.008 46.3072 33.928 48.6752 33.928C49.4432 33.928 50.2592 33.752 51.1232 33.4C51.9872 33.016 52.6752 32.648 53.1872 32.296L53.9072 31.72L55.0112 33.208C54.7552 33.56 54.2432 34.024 53.4752 34.6C52.7072 35.176 51.9872 35.656 51.3152 36.04C50.6432 36.424 49.7792 36.776 48.7232 37.096C47.6672 37.416 46.6272 37.576 45.6032 37.576C43.1072 37.576 41.2352 36.76 39.9872 35.128C38.7392 33.496 38.1152 31.304 38.1152 28.552C38.1152 24.744 39.1552 21.656 41.2352 19.288C43.3472 16.92 46.0512 15.736 49.3472 15.736C51.4912 15.736 53.1872 16.232 54.4352 17.224C55.7152 18.184 56.3552 19.384 56.3552 20.824C56.3552 22.232 55.9072 23.448 55.0112 24.472C54.2112 24.472 53.2832 24.296 52.2272 23.944C51.1712 23.592 50.3712 23.16 49.8272 22.648L50.5472 18.424C50.2592 18.232 49.8592 18.136 49.3472 18.136Z"/>
    <path d="M71.6893 17.128C71.7533 17.064 71.9293 16.648 72.2173 15.88C73.7213 15.88 75.7373 16.328 78.2653 17.224C77.4653 19.88 76.8253 22.664 76.3453 25.576C75.8653 28.456 75.6253 30.52 75.6253 31.768C75.6253 32.984 75.7533 33.592 76.0093 33.592C76.2013 33.592 76.9053 33.288 78.1213 32.68L78.6973 32.392L79.5613 34.072C79.2733 34.328 78.8893 34.648 78.4093 35.032C77.9613 35.416 77.0973 35.944 75.8173 36.616C74.5373 37.256 73.3853 37.576 72.3613 37.576C70.3773 37.576 69.2253 36.68 68.9053 34.888C66.8573 36.68 65.0013 37.576 63.3373 37.576C61.7053 37.576 60.3133 36.936 59.1613 35.656C58.0413 34.376 57.4813 32.36 57.4813 29.608C57.4813 25.32 58.3613 21.944 60.1213 19.48C61.8813 16.984 64.0093 15.736 66.5053 15.736C68.2973 15.736 70.0253 16.2 71.6893 17.128ZM66.2173 33.496C66.9853 33.496 67.8493 33.192 68.8093 32.584C69.0333 28.072 69.7853 23.608 71.0653 19.192C70.1053 18.776 69.2893 18.568 68.6173 18.568C67.4653 18.568 66.4733 19.704 65.6413 21.976C64.8413 24.216 64.4413 26.696 64.4413 29.416C64.4413 32.136 65.0333 33.496 66.2173 33.496Z"/>
    <path d="M85.8718 5.32C85.8718 4.264 85.7758 3.512 85.5838 3.064C88.0798 2.2 90.4318 1.768 92.6398 1.768C92.9278 2.056 93.0718 2.792 93.0718 3.976C93.0718 6.632 92.1918 11.72 90.4318 19.24C93.2798 16.904 96.0958 15.736 98.8798 15.736C100.128 15.736 101.184 16.12 102.048 16.888C102.912 17.656 103.344 18.776 103.344 20.248C103.344 23 101.088 25 96.5758 26.248C97.6318 29.576 98.5598 31.832 99.3598 33.016C99.7118 33.528 99.9678 33.784 100.128 33.784C100.48 33.784 101.216 33.512 102.336 32.968L102.864 32.728L103.632 34.36C102.864 35.064 101.792 35.784 100.416 36.52C99.0718 37.224 97.8398 37.576 96.7198 37.576C94.2238 37.576 92.4798 35.304 91.4878 30.76C91.0398 28.808 90.7678 26.984 90.6718 25.288C92.7198 24.808 94.2398 24.232 95.2318 23.56C96.2558 22.856 96.7678 21.976 96.7678 20.92C96.7678 19.832 96.2238 19.288 95.1358 19.288C94.0478 19.288 92.2238 20.376 89.6638 22.552C88.0638 29.304 87.2638 33.928 87.2638 36.424C85.5038 36.936 83.2158 37.192 80.3998 37.192C80.3678 36.648 80.3518 36.168 80.3518 35.752C80.3518 34.376 81.2638 29.672 83.0878 21.64C84.9438 13.608 85.8718 8.168 85.8718 5.32Z"/>
    <path d="M104.631 28.696C104.631 24.696 105.831 21.544 108.231 19.24C110.663 16.904 113.415 15.736 116.487 15.736C118.375 15.736 119.927 16.2 121.143 17.128C122.359 18.056 122.967 19.304 122.967 20.872C122.967 22.408 122.567 23.704 121.767 24.76C120.999 25.816 120.055 26.632 118.935 27.208C116.663 28.328 114.583 29.032 112.695 29.32L111.543 29.464C111.767 32.472 112.999 33.976 115.239 33.976C116.007 33.976 116.823 33.784 117.687 33.4C118.551 33.016 119.223 32.632 119.703 32.248L120.423 31.672L121.575 33.208C121.319 33.56 120.807 34.024 120.039 34.6C119.271 35.176 118.551 35.656 117.879 36.04C116.023 37.064 113.991 37.576 111.783 37.576C109.575 37.576 107.831 36.792 106.551 35.224C105.271 33.656 104.631 31.48 104.631 28.696ZM111.495 27.112C113.127 26.824 114.423 26.136 115.383 25.048C116.343 23.96 116.823 22.552 116.823 20.824C116.823 19.096 116.311 18.232 115.287 18.232C114.071 18.232 113.127 19.272 112.455 21.352C111.815 23.4 111.495 25.32 111.495 27.112Z"/>
    <path d="M148.436 30.712C148.436 32.728 147.54 34.376 145.748 35.656C143.988 36.936 141.972 37.576 139.7 37.576C137.428 37.576 135.62 37.096 134.276 36.136C132.964 35.176 132.308 34.328 132.308 33.592C132.308 33.144 132.868 32.424 133.988 31.432C135.108 30.408 136.052 29.784 136.82 29.56C138.42 30.744 139.732 32.616 140.756 35.176C141.94 35.08 142.532 34.52 142.532 33.496C142.532 32.024 141.236 29.944 138.644 27.256C136.052 24.536 134.756 22.376 134.756 20.776C134.756 19.176 135.476 17.944 136.916 17.08C138.356 16.184 140.084 15.736 142.1 15.736C144.148 15.736 145.684 16.104 146.708 16.84C147.732 17.544 148.244 18.52 148.244 19.768C148.244 20.984 147.268 22.68 145.316 24.856C145.54 25.08 145.828 25.384 146.18 25.768C146.532 26.12 146.996 26.808 147.572 27.832C148.148 28.856 148.436 29.816 148.436 30.712ZM143.828 23.176C145.172 22.024 145.844 20.888 145.844 19.768C145.844 18.648 145.076 18.088 143.54 18.088C142.804 18.088 142.196 18.248 141.716 18.568C141.236 18.856 140.996 19.192 140.996 19.576C140.996 20.28 141.7 21.272 143.108 22.552L143.828 23.176Z"/>
    <path d="M156.283 5.32C156.283 4.264 156.187 3.512 155.995 3.064C158.491 2.2 160.843 1.768 163.051 1.768C163.339 2.056 163.483 2.792 163.483 3.976C163.483 6.088 162.587 10.952 160.795 18.568C163.387 16.68 165.659 15.736 167.611 15.736C168.827 15.736 169.739 16.12 170.347 16.888C170.987 17.656 171.307 18.68 171.307 19.96C171.307 21.208 170.939 23.272 170.203 26.152C169.467 29 169.099 30.952 169.099 32.008C169.099 33.064 169.227 33.592 169.483 33.592C169.739 33.592 170.411 33.304 171.499 32.728L172.075 32.44L172.939 34.12C172.651 34.376 172.267 34.696 171.787 35.08C171.307 35.464 170.427 35.976 169.147 36.616C167.867 37.256 166.683 37.576 165.595 37.576C164.539 37.576 163.691 37.24 163.051 36.568C162.411 35.864 162.091 34.936 162.091 33.784C162.091 32.6 162.443 30.472 163.147 27.4C163.883 24.296 164.251 22.344 164.251 21.544C164.251 20.712 163.915 20.296 163.243 20.296C162.411 20.296 161.371 20.648 160.123 21.352C158.363 29.096 157.483 34.12 157.483 36.424C156.139 36.936 153.851 37.192 150.619 37.192C150.587 36.648 150.571 36.168 150.571 35.752C150.571 34.376 151.515 29.672 153.403 21.64C155.323 13.608 156.283 8.168 156.283 5.32Z"/>
    <path d="M181.199 37.576C178.991 37.576 177.263 36.808 176.015 35.272C174.767 33.704 174.143 31.528 174.143 28.744C174.143 25.192 175.087 22.136 176.975 19.576C178.895 17.016 181.535 15.736 184.895 15.736L186.623 15.832C187.167 15.544 187.775 15.4 188.447 15.4C190.975 15.4 192.239 17.784 192.239 22.552C193.551 22.488 194.879 22.312 196.223 22.024L196.991 21.832L197.279 23.704C196.223 24.152 194.799 24.552 193.007 24.904L192.047 25.096C191.439 28.456 190.207 31.384 188.351 33.88C186.495 36.344 184.111 37.576 181.199 37.576ZM183.791 33.448C185.135 33.448 186.335 32.584 187.391 30.856C188.479 29.128 189.231 27.304 189.647 25.384C186.223 25.384 184.511 24.104 184.511 21.544C184.511 20.52 184.719 19.56 185.135 18.664L185.375 18.184C185.247 18.12 185.087 18.088 184.895 18.088C184.703 18.088 184.559 18.12 184.463 18.184C183.663 18.696 182.911 19.896 182.207 21.784C181.503 23.672 181.151 25.832 181.151 28.264C181.151 31.72 182.031 33.448 183.791 33.448Z"/>
    <path d="M192.728 47.752C192.568 47.368 192.488 46.52 192.488 45.208C192.488 43.896 193.112 40.376 194.36 34.648C195.608 28.888 196.232 24.456 196.232 21.352C196.232 20.744 196.088 20.104 195.8 19.432C195.512 18.728 195.208 18.184 194.888 17.8L194.456 17.272L194.504 16.648C196.008 16.168 198.664 15.928 202.472 15.928C202.824 16.6 203.048 17.544 203.144 18.76C205.608 16.744 207.656 15.736 209.288 15.736C210.952 15.736 212.28 16.424 213.272 17.8C214.296 19.176 214.808 21.192 214.808 23.848C214.808 28.488 213.96 31.944 212.264 34.216C210.568 36.456 208.424 37.576 205.832 37.576C204.488 37.576 203.368 37.384 202.472 37L201.992 36.808L202.328 34.936C202.616 35 202.952 35.032 203.336 35.032C204.168 35.032 204.888 34.648 205.496 33.88C206.136 33.112 206.616 32.136 206.936 30.952C207.576 28.584 207.896 26.392 207.896 24.376C207.896 21.496 207.304 20.056 206.12 20.056C205.192 20.056 204.2 20.424 203.144 21.16C203.016 23.4 202.36 27.32 201.176 32.92C199.992 38.52 199.4 43.032 199.4 46.456C197.672 47.16 195.448 47.592 192.728 47.752Z"/>
    </mask>
    <path d="M28.5253 37.576C26.8613 37.576 25.6453 37.144 24.8773 36.28C24.1093 35.384 23.7253 34.216 23.7253 32.776C23.7253 31.304 24.4453 27.368 25.8853 20.968C23.1653 21.032 20.9893 21.288 19.3573 21.736C18.4293 26.248 17.0053 30.152 15.0853 33.448C14.0933 35.112 12.8933 36.424 11.4853 37.384C10.0773 38.376 8.54132 38.872 6.87732 38.872C5.21332 38.872 3.85332 38.312 2.79732 37.192C1.74132 36.104 1.21332 34.664 1.21332 32.872C1.21332 30.312 2.26932 27.912 4.38132 25.672C6.49332 23.4 9.16531 21.576 12.3973 20.2C12.6853 17.256 12.8293 14.856 12.8293 13C12.8293 11.112 12.6373 9.784 12.2533 9.016C11.9013 8.248 11.3253 7.864 10.5253 7.864C9.72531 7.864 8.66931 8.168 7.35732 8.776C6.04532 9.352 4.81332 10.136 3.66132 11.128L2.46132 9.4C3.61332 7.992 5.30932 6.664 7.54932 5.416C9.78932 4.136 11.9493 3.496 14.0293 3.496C18.2213 3.496 20.3173 6.68 20.3173 13.048C20.3173 14.552 20.1893 16.36 19.9333 18.472C22.0133 18.056 24.2373 17.784 26.6053 17.656C27.6933 12.6 28.2373 8.6 28.2373 5.656C28.2373 5.112 28.2053 4.696 28.1413 4.408C30.7013 3.416 33.2773 2.92 35.8693 2.92C35.9653 3.176 36.0133 3.624 36.0133 4.264C36.0133 6.248 35.2293 10.776 33.6613 17.848C37.5013 18.136 40.1253 18.52 41.5333 19C41.5653 19.128 41.5813 19.368 41.5813 19.72C41.5813 20.392 41.2773 21.24 40.6693 22.264C38.5893 21.624 36.0293 21.208 32.9893 21.016C31.8693 26.392 31.3093 29.88 31.3093 31.48C31.3093 33.048 31.6933 33.832 32.4613 33.832C32.8773 33.832 33.3253 33.752 33.8053 33.592L34.5253 35.464C32.2213 36.872 30.2213 37.576 28.5253 37.576ZM6.39731 34.264C7.42131 34.264 8.42931 33.384 9.42131 31.624C10.4133 29.864 11.2133 27.24 11.8213 23.752C10.0293 24.52 8.39731 25.72 6.92531 27.352C5.45331 28.984 4.71732 30.552 4.71732 32.056C4.71732 32.76 4.87731 33.304 5.19731 33.688C5.54931 34.072 5.94931 34.264 6.39731 34.264Z" fill="white"/>
    <path d="M49.3472 18.136C48.0672 18.136 47.0432 19.208 46.2752 21.352C45.5072 23.464 45.1232 25.736 45.1232 28.168C45.1232 32.008 46.3072 33.928 48.6752 33.928C49.4432 33.928 50.2592 33.752 51.1232 33.4C51.9872 33.016 52.6752 32.648 53.1872 32.296L53.9072 31.72L55.0112 33.208C54.7552 33.56 54.2432 34.024 53.4752 34.6C52.7072 35.176 51.9872 35.656 51.3152 36.04C50.6432 36.424 49.7792 36.776 48.7232 37.096C47.6672 37.416 46.6272 37.576 45.6032 37.576C43.1072 37.576 41.2352 36.76 39.9872 35.128C38.7392 33.496 38.1152 31.304 38.1152 28.552C38.1152 24.744 39.1552 21.656 41.2352 19.288C43.3472 16.92 46.0512 15.736 49.3472 15.736C51.4912 15.736 53.1872 16.232 54.4352 17.224C55.7152 18.184 56.3552 19.384 56.3552 20.824C56.3552 22.232 55.9072 23.448 55.0112 24.472C54.2112 24.472 53.2832 24.296 52.2272 23.944C51.1712 23.592 50.3712 23.16 49.8272 22.648L50.5472 18.424C50.2592 18.232 49.8592 18.136 49.3472 18.136Z" fill="white"/>
    <path d="M71.6893 17.128C71.7533 17.064 71.9293 16.648 72.2173 15.88C73.7213 15.88 75.7373 16.328 78.2653 17.224C77.4653 19.88 76.8253 22.664 76.3453 25.576C75.8653 28.456 75.6253 30.52 75.6253 31.768C75.6253 32.984 75.7533 33.592 76.0093 33.592C76.2013 33.592 76.9053 33.288 78.1213 32.68L78.6973 32.392L79.5613 34.072C79.2733 34.328 78.8893 34.648 78.4093 35.032C77.9613 35.416 77.0973 35.944 75.8173 36.616C74.5373 37.256 73.3853 37.576 72.3613 37.576C70.3773 37.576 69.2253 36.68 68.9053 34.888C66.8573 36.68 65.0013 37.576 63.3373 37.576C61.7053 37.576 60.3133 36.936 59.1613 35.656C58.0413 34.376 57.4813 32.36 57.4813 29.608C57.4813 25.32 58.3613 21.944 60.1213 19.48C61.8813 16.984 64.0093 15.736 66.5053 15.736C68.2973 15.736 70.0253 16.2 71.6893 17.128ZM66.2173 33.496C66.9853 33.496 67.8493 33.192 68.8093 32.584C69.0333 28.072 69.7853 23.608 71.0653 19.192C70.1053 18.776 69.2893 18.568 68.6173 18.568C67.4653 18.568 66.4733 19.704 65.6413 21.976C64.8413 24.216 64.4413 26.696 64.4413 29.416C64.4413 32.136 65.0333 33.496 66.2173 33.496Z" fill="white"/>
    <path d="M85.8718 5.32C85.8718 4.264 85.7758 3.512 85.5838 3.064C88.0798 2.2 90.4318 1.768 92.6398 1.768C92.9278 2.056 93.0718 2.792 93.0718 3.976C93.0718 6.632 92.1918 11.72 90.4318 19.24C93.2798 16.904 96.0958 15.736 98.8798 15.736C100.128 15.736 101.184 16.12 102.048 16.888C102.912 17.656 103.344 18.776 103.344 20.248C103.344 23 101.088 25 96.5758 26.248C97.6318 29.576 98.5598 31.832 99.3598 33.016C99.7118 33.528 99.9678 33.784 100.128 33.784C100.48 33.784 101.216 33.512 102.336 32.968L102.864 32.728L103.632 34.36C102.864 35.064 101.792 35.784 100.416 36.52C99.0718 37.224 97.8398 37.576 96.7198 37.576C94.2238 37.576 92.4798 35.304 91.4878 30.76C91.0398 28.808 90.7678 26.984 90.6718 25.288C92.7198 24.808 94.2398 24.232 95.2318 23.56C96.2558 22.856 96.7678 21.976 96.7678 20.92C96.7678 19.832 96.2238 19.288 95.1358 19.288C94.0478 19.288 92.2238 20.376 89.6638 22.552C88.0638 29.304 87.2638 33.928 87.2638 36.424C85.5038 36.936 83.2158 37.192 80.3998 37.192C80.3678 36.648 80.3518 36.168 80.3518 35.752C80.3518 34.376 81.2638 29.672 83.0878 21.64C84.9438 13.608 85.8718 8.168 85.8718 5.32Z" fill="white"/>
    <path d="M104.631 28.696C104.631 24.696 105.831 21.544 108.231 19.24C110.663 16.904 113.415 15.736 116.487 15.736C118.375 15.736 119.927 16.2 121.143 17.128C122.359 18.056 122.967 19.304 122.967 20.872C122.967 22.408 122.567 23.704 121.767 24.76C120.999 25.816 120.055 26.632 118.935 27.208C116.663 28.328 114.583 29.032 112.695 29.32L111.543 29.464C111.767 32.472 112.999 33.976 115.239 33.976C116.007 33.976 116.823 33.784 117.687 33.4C118.551 33.016 119.223 32.632 119.703 32.248L120.423 31.672L121.575 33.208C121.319 33.56 120.807 34.024 120.039 34.6C119.271 35.176 118.551 35.656 117.879 36.04C116.023 37.064 113.991 37.576 111.783 37.576C109.575 37.576 107.831 36.792 106.551 35.224C105.271 33.656 104.631 31.48 104.631 28.696ZM111.495 27.112C113.127 26.824 114.423 26.136 115.383 25.048C116.343 23.96 116.823 22.552 116.823 20.824C116.823 19.096 116.311 18.232 115.287 18.232C114.071 18.232 113.127 19.272 112.455 21.352C111.815 23.4 111.495 25.32 111.495 27.112Z" fill="white"/>
    <path d="M148.436 30.712C148.436 32.728 147.54 34.376 145.748 35.656C143.988 36.936 141.972 37.576 139.7 37.576C137.428 37.576 135.62 37.096 134.276 36.136C132.964 35.176 132.308 34.328 132.308 33.592C132.308 33.144 132.868 32.424 133.988 31.432C135.108 30.408 136.052 29.784 136.82 29.56C138.42 30.744 139.732 32.616 140.756 35.176C141.94 35.08 142.532 34.52 142.532 33.496C142.532 32.024 141.236 29.944 138.644 27.256C136.052 24.536 134.756 22.376 134.756 20.776C134.756 19.176 135.476 17.944 136.916 17.08C138.356 16.184 140.084 15.736 142.1 15.736C144.148 15.736 145.684 16.104 146.708 16.84C147.732 17.544 148.244 18.52 148.244 19.768C148.244 20.984 147.268 22.68 145.316 24.856C145.54 25.08 145.828 25.384 146.18 25.768C146.532 26.12 146.996 26.808 147.572 27.832C148.148 28.856 148.436 29.816 148.436 30.712ZM143.828 23.176C145.172 22.024 145.844 20.888 145.844 19.768C145.844 18.648 145.076 18.088 143.54 18.088C142.804 18.088 142.196 18.248 141.716 18.568C141.236 18.856 140.996 19.192 140.996 19.576C140.996 20.28 141.7 21.272 143.108 22.552L143.828 23.176Z" fill="white"/>
    <path d="M156.283 5.32C156.283 4.264 156.187 3.512 155.995 3.064C158.491 2.2 160.843 1.768 163.051 1.768C163.339 2.056 163.483 2.792 163.483 3.976C163.483 6.088 162.587 10.952 160.795 18.568C163.387 16.68 165.659 15.736 167.611 15.736C168.827 15.736 169.739 16.12 170.347 16.888C170.987 17.656 171.307 18.68 171.307 19.96C171.307 21.208 170.939 23.272 170.203 26.152C169.467 29 169.099 30.952 169.099 32.008C169.099 33.064 169.227 33.592 169.483 33.592C169.739 33.592 170.411 33.304 171.499 32.728L172.075 32.44L172.939 34.12C172.651 34.376 172.267 34.696 171.787 35.08C171.307 35.464 170.427 35.976 169.147 36.616C167.867 37.256 166.683 37.576 165.595 37.576C164.539 37.576 163.691 37.24 163.051 36.568C162.411 35.864 162.091 34.936 162.091 33.784C162.091 32.6 162.443 30.472 163.147 27.4C163.883 24.296 164.251 22.344 164.251 21.544C164.251 20.712 163.915 20.296 163.243 20.296C162.411 20.296 161.371 20.648 160.123 21.352C158.363 29.096 157.483 34.12 157.483 36.424C156.139 36.936 153.851 37.192 150.619 37.192C150.587 36.648 150.571 36.168 150.571 35.752C150.571 34.376 151.515 29.672 153.403 21.64C155.323 13.608 156.283 8.168 156.283 5.32Z" fill="white"/>
    <path d="M181.199 37.576C178.991 37.576 177.263 36.808 176.015 35.272C174.767 33.704 174.143 31.528 174.143 28.744C174.143 25.192 175.087 22.136 176.975 19.576C178.895 17.016 181.535 15.736 184.895 15.736L186.623 15.832C187.167 15.544 187.775 15.4 188.447 15.4C190.975 15.4 192.239 17.784 192.239 22.552C193.551 22.488 194.879 22.312 196.223 22.024L196.991 21.832L197.279 23.704C196.223 24.152 194.799 24.552 193.007 24.904L192.047 25.096C191.439 28.456 190.207 31.384 188.351 33.88C186.495 36.344 184.111 37.576 181.199 37.576ZM183.791 33.448C185.135 33.448 186.335 32.584 187.391 30.856C188.479 29.128 189.231 27.304 189.647 25.384C186.223 25.384 184.511 24.104 184.511 21.544C184.511 20.52 184.719 19.56 185.135 18.664L185.375 18.184C185.247 18.12 185.087 18.088 184.895 18.088C184.703 18.088 184.559 18.12 184.463 18.184C183.663 18.696 182.911 19.896 182.207 21.784C181.503 23.672 181.151 25.832 181.151 28.264C181.151 31.72 182.031 33.448 183.791 33.448Z" fill="white"/>
    <path d="M192.728 47.752C192.568 47.368 192.488 46.52 192.488 45.208C192.488 43.896 193.112 40.376 194.36 34.648C195.608 28.888 196.232 24.456 196.232 21.352C196.232 20.744 196.088 20.104 195.8 19.432C195.512 18.728 195.208 18.184 194.888 17.8L194.456 17.272L194.504 16.648C196.008 16.168 198.664 15.928 202.472 15.928C202.824 16.6 203.048 17.544 203.144 18.76C205.608 16.744 207.656 15.736 209.288 15.736C210.952 15.736 212.28 16.424 213.272 17.8C214.296 19.176 214.808 21.192 214.808 23.848C214.808 28.488 213.96 31.944 212.264 34.216C210.568 36.456 208.424 37.576 205.832 37.576C204.488 37.576 203.368 37.384 202.472 37L201.992 36.808L202.328 34.936C202.616 35 202.952 35.032 203.336 35.032C204.168 35.032 204.888 34.648 205.496 33.88C206.136 33.112 206.616 32.136 206.936 30.952C207.576 28.584 207.896 26.392 207.896 24.376C207.896 21.496 207.304 20.056 206.12 20.056C205.192 20.056 204.2 20.424 203.144 21.16C203.016 23.4 202.36 27.32 201.176 32.92C199.992 38.52 199.4 43.032 199.4 46.456C197.672 47.16 195.448 47.592 192.728 47.752Z" fill="white"/>
    <path d="M28.5253 37.576C26.8613 37.576 25.6453 37.144 24.8773 36.28C24.1093 35.384 23.7253 34.216 23.7253 32.776C23.7253 31.304 24.4453 27.368 25.8853 20.968C23.1653 21.032 20.9893 21.288 19.3573 21.736C18.4293 26.248 17.0053 30.152 15.0853 33.448C14.0933 35.112 12.8933 36.424 11.4853 37.384C10.0773 38.376 8.54132 38.872 6.87732 38.872C5.21332 38.872 3.85332 38.312 2.79732 37.192C1.74132 36.104 1.21332 34.664 1.21332 32.872C1.21332 30.312 2.26932 27.912 4.38132 25.672C6.49332 23.4 9.16531 21.576 12.3973 20.2C12.6853 17.256 12.8293 14.856 12.8293 13C12.8293 11.112 12.6373 9.784 12.2533 9.016C11.9013 8.248 11.3253 7.864 10.5253 7.864C9.72531 7.864 8.66931 8.168 7.35732 8.776C6.04532 9.352 4.81332 10.136 3.66132 11.128L2.46132 9.4C3.61332 7.992 5.30932 6.664 7.54932 5.416C9.78932 4.136 11.9493 3.496 14.0293 3.496C18.2213 3.496 20.3173 6.68 20.3173 13.048C20.3173 14.552 20.1893 16.36 19.9333 18.472C22.0133 18.056 24.2373 17.784 26.6053 17.656C27.6933 12.6 28.2373 8.6 28.2373 5.656C28.2373 5.112 28.2053 4.696 28.1413 4.408C30.7013 3.416 33.2773 2.92 35.8693 2.92C35.9653 3.176 36.0133 3.624 36.0133 4.264C36.0133 6.248 35.2293 10.776 33.6613 17.848C37.5013 18.136 40.1253 18.52 41.5333 19C41.5653 19.128 41.5813 19.368 41.5813 19.72C41.5813 20.392 41.2773 21.24 40.6693 22.264C38.5893 21.624 36.0293 21.208 32.9893 21.016C31.8693 26.392 31.3093 29.88 31.3093 31.48C31.3093 33.048 31.6933 33.832 32.4613 33.832C32.8773 33.832 33.3253 33.752 33.8053 33.592L34.5253 35.464C32.2213 36.872 30.2213 37.576 28.5253 37.576ZM6.39731 34.264C7.42131 34.264 8.42931 33.384 9.42131 31.624C10.4133 29.864 11.2133 27.24 11.8213 23.752C10.0293 24.52 8.39731 25.72 6.92531 27.352C5.45331 28.984 4.71732 30.552 4.71732 32.056C4.71732 32.76 4.87731 33.304 5.19731 33.688C5.54931 34.072 5.94931 34.264 6.39731 34.264Z" stroke="#868686" stroke-width="2" mask="url(#path-1-outside-1)"/>
    <path d="M49.3472 18.136C48.0672 18.136 47.0432 19.208 46.2752 21.352C45.5072 23.464 45.1232 25.736 45.1232 28.168C45.1232 32.008 46.3072 33.928 48.6752 33.928C49.4432 33.928 50.2592 33.752 51.1232 33.4C51.9872 33.016 52.6752 32.648 53.1872 32.296L53.9072 31.72L55.0112 33.208C54.7552 33.56 54.2432 34.024 53.4752 34.6C52.7072 35.176 51.9872 35.656 51.3152 36.04C50.6432 36.424 49.7792 36.776 48.7232 37.096C47.6672 37.416 46.6272 37.576 45.6032 37.576C43.1072 37.576 41.2352 36.76 39.9872 35.128C38.7392 33.496 38.1152 31.304 38.1152 28.552C38.1152 24.744 39.1552 21.656 41.2352 19.288C43.3472 16.92 46.0512 15.736 49.3472 15.736C51.4912 15.736 53.1872 16.232 54.4352 17.224C55.7152 18.184 56.3552 19.384 56.3552 20.824C56.3552 22.232 55.9072 23.448 55.0112 24.472C54.2112 24.472 53.2832 24.296 52.2272 23.944C51.1712 23.592 50.3712 23.16 49.8272 22.648L50.5472 18.424C50.2592 18.232 49.8592 18.136 49.3472 18.136Z" stroke="#868686" stroke-width="2" mask="url(#path-1-outside-1)"/>
    <path d="M71.6893 17.128C71.7533 17.064 71.9293 16.648 72.2173 15.88C73.7213 15.88 75.7373 16.328 78.2653 17.224C77.4653 19.88 76.8253 22.664 76.3453 25.576C75.8653 28.456 75.6253 30.52 75.6253 31.768C75.6253 32.984 75.7533 33.592 76.0093 33.592C76.2013 33.592 76.9053 33.288 78.1213 32.68L78.6973 32.392L79.5613 34.072C79.2733 34.328 78.8893 34.648 78.4093 35.032C77.9613 35.416 77.0973 35.944 75.8173 36.616C74.5373 37.256 73.3853 37.576 72.3613 37.576C70.3773 37.576 69.2253 36.68 68.9053 34.888C66.8573 36.68 65.0013 37.576 63.3373 37.576C61.7053 37.576 60.3133 36.936 59.1613 35.656C58.0413 34.376 57.4813 32.36 57.4813 29.608C57.4813 25.32 58.3613 21.944 60.1213 19.48C61.8813 16.984 64.0093 15.736 66.5053 15.736C68.2973 15.736 70.0253 16.2 71.6893 17.128ZM66.2173 33.496C66.9853 33.496 67.8493 33.192 68.8093 32.584C69.0333 28.072 69.7853 23.608 71.0653 19.192C70.1053 18.776 69.2893 18.568 68.6173 18.568C67.4653 18.568 66.4733 19.704 65.6413 21.976C64.8413 24.216 64.4413 26.696 64.4413 29.416C64.4413 32.136 65.0333 33.496 66.2173 33.496Z" stroke="#868686" stroke-width="2" mask="url(#path-1-outside-1)"/>
    <path d="M85.8718 5.32C85.8718 4.264 85.7758 3.512 85.5838 3.064C88.0798 2.2 90.4318 1.768 92.6398 1.768C92.9278 2.056 93.0718 2.792 93.0718 3.976C93.0718 6.632 92.1918 11.72 90.4318 19.24C93.2798 16.904 96.0958 15.736 98.8798 15.736C100.128 15.736 101.184 16.12 102.048 16.888C102.912 17.656 103.344 18.776 103.344 20.248C103.344 23 101.088 25 96.5758 26.248C97.6318 29.576 98.5598 31.832 99.3598 33.016C99.7118 33.528 99.9678 33.784 100.128 33.784C100.48 33.784 101.216 33.512 102.336 32.968L102.864 32.728L103.632 34.36C102.864 35.064 101.792 35.784 100.416 36.52C99.0718 37.224 97.8398 37.576 96.7198 37.576C94.2238 37.576 92.4798 35.304 91.4878 30.76C91.0398 28.808 90.7678 26.984 90.6718 25.288C92.7198 24.808 94.2398 24.232 95.2318 23.56C96.2558 22.856 96.7678 21.976 96.7678 20.92C96.7678 19.832 96.2238 19.288 95.1358 19.288C94.0478 19.288 92.2238 20.376 89.6638 22.552C88.0638 29.304 87.2638 33.928 87.2638 36.424C85.5038 36.936 83.2158 37.192 80.3998 37.192C80.3678 36.648 80.3518 36.168 80.3518 35.752C80.3518 34.376 81.2638 29.672 83.0878 21.64C84.9438 13.608 85.8718 8.168 85.8718 5.32Z" stroke="#868686" stroke-width="2" mask="url(#path-1-outside-1)"/>
    <path d="M104.631 28.696C104.631 24.696 105.831 21.544 108.231 19.24C110.663 16.904 113.415 15.736 116.487 15.736C118.375 15.736 119.927 16.2 121.143 17.128C122.359 18.056 122.967 19.304 122.967 20.872C122.967 22.408 122.567 23.704 121.767 24.76C120.999 25.816 120.055 26.632 118.935 27.208C116.663 28.328 114.583 29.032 112.695 29.32L111.543 29.464C111.767 32.472 112.999 33.976 115.239 33.976C116.007 33.976 116.823 33.784 117.687 33.4C118.551 33.016 119.223 32.632 119.703 32.248L120.423 31.672L121.575 33.208C121.319 33.56 120.807 34.024 120.039 34.6C119.271 35.176 118.551 35.656 117.879 36.04C116.023 37.064 113.991 37.576 111.783 37.576C109.575 37.576 107.831 36.792 106.551 35.224C105.271 33.656 104.631 31.48 104.631 28.696ZM111.495 27.112C113.127 26.824 114.423 26.136 115.383 25.048C116.343 23.96 116.823 22.552 116.823 20.824C116.823 19.096 116.311 18.232 115.287 18.232C114.071 18.232 113.127 19.272 112.455 21.352C111.815 23.4 111.495 25.32 111.495 27.112Z" stroke="#868686" stroke-width="2" mask="url(#path-1-outside-1)"/>
    <path d="M148.436 30.712C148.436 32.728 147.54 34.376 145.748 35.656C143.988 36.936 141.972 37.576 139.7 37.576C137.428 37.576 135.62 37.096 134.276 36.136C132.964 35.176 132.308 34.328 132.308 33.592C132.308 33.144 132.868 32.424 133.988 31.432C135.108 30.408 136.052 29.784 136.82 29.56C138.42 30.744 139.732 32.616 140.756 35.176C141.94 35.08 142.532 34.52 142.532 33.496C142.532 32.024 141.236 29.944 138.644 27.256C136.052 24.536 134.756 22.376 134.756 20.776C134.756 19.176 135.476 17.944 136.916 17.08C138.356 16.184 140.084 15.736 142.1 15.736C144.148 15.736 145.684 16.104 146.708 16.84C147.732 17.544 148.244 18.52 148.244 19.768C148.244 20.984 147.268 22.68 145.316 24.856C145.54 25.08 145.828 25.384 146.18 25.768C146.532 26.12 146.996 26.808 147.572 27.832C148.148 28.856 148.436 29.816 148.436 30.712ZM143.828 23.176C145.172 22.024 145.844 20.888 145.844 19.768C145.844 18.648 145.076 18.088 143.54 18.088C142.804 18.088 142.196 18.248 141.716 18.568C141.236 18.856 140.996 19.192 140.996 19.576C140.996 20.28 141.7 21.272 143.108 22.552L143.828 23.176Z" stroke="#868686" stroke-width="2" mask="url(#path-1-outside-1)"/>
    <path d="M156.283 5.32C156.283 4.264 156.187 3.512 155.995 3.064C158.491 2.2 160.843 1.768 163.051 1.768C163.339 2.056 163.483 2.792 163.483 3.976C163.483 6.088 162.587 10.952 160.795 18.568C163.387 16.68 165.659 15.736 167.611 15.736C168.827 15.736 169.739 16.12 170.347 16.888C170.987 17.656 171.307 18.68 171.307 19.96C171.307 21.208 170.939 23.272 170.203 26.152C169.467 29 169.099 30.952 169.099 32.008C169.099 33.064 169.227 33.592 169.483 33.592C169.739 33.592 170.411 33.304 171.499 32.728L172.075 32.44L172.939 34.12C172.651 34.376 172.267 34.696 171.787 35.08C171.307 35.464 170.427 35.976 169.147 36.616C167.867 37.256 166.683 37.576 165.595 37.576C164.539 37.576 163.691 37.24 163.051 36.568C162.411 35.864 162.091 34.936 162.091 33.784C162.091 32.6 162.443 30.472 163.147 27.4C163.883 24.296 164.251 22.344 164.251 21.544C164.251 20.712 163.915 20.296 163.243 20.296C162.411 20.296 161.371 20.648 160.123 21.352C158.363 29.096 157.483 34.12 157.483 36.424C156.139 36.936 153.851 37.192 150.619 37.192C150.587 36.648 150.571 36.168 150.571 35.752C150.571 34.376 151.515 29.672 153.403 21.64C155.323 13.608 156.283 8.168 156.283 5.32Z" stroke="#868686" stroke-width="2" mask="url(#path-1-outside-1)"/>
    <path d="M181.199 37.576C178.991 37.576 177.263 36.808 176.015 35.272C174.767 33.704 174.143 31.528 174.143 28.744C174.143 25.192 175.087 22.136 176.975 19.576C178.895 17.016 181.535 15.736 184.895 15.736L186.623 15.832C187.167 15.544 187.775 15.4 188.447 15.4C190.975 15.4 192.239 17.784 192.239 22.552C193.551 22.488 194.879 22.312 196.223 22.024L196.991 21.832L197.279 23.704C196.223 24.152 194.799 24.552 193.007 24.904L192.047 25.096C191.439 28.456 190.207 31.384 188.351 33.88C186.495 36.344 184.111 37.576 181.199 37.576ZM183.791 33.448C185.135 33.448 186.335 32.584 187.391 30.856C188.479 29.128 189.231 27.304 189.647 25.384C186.223 25.384 184.511 24.104 184.511 21.544C184.511 20.52 184.719 19.56 185.135 18.664L185.375 18.184C185.247 18.12 185.087 18.088 184.895 18.088C184.703 18.088 184.559 18.12 184.463 18.184C183.663 18.696 182.911 19.896 182.207 21.784C181.503 23.672 181.151 25.832 181.151 28.264C181.151 31.72 182.031 33.448 183.791 33.448Z" stroke="#868686" stroke-width="2" mask="url(#path-1-outside-1)"/>
    <path d="M192.728 47.752C192.568 47.368 192.488 46.52 192.488 45.208C192.488 43.896 193.112 40.376 194.36 34.648C195.608 28.888 196.232 24.456 196.232 21.352C196.232 20.744 196.088 20.104 195.8 19.432C195.512 18.728 195.208 18.184 194.888 17.8L194.456 17.272L194.504 16.648C196.008 16.168 198.664 15.928 202.472 15.928C202.824 16.6 203.048 17.544 203.144 18.76C205.608 16.744 207.656 15.736 209.288 15.736C210.952 15.736 212.28 16.424 213.272 17.8C214.296 19.176 214.808 21.192 214.808 23.848C214.808 28.488 213.96 31.944 212.264 34.216C210.568 36.456 208.424 37.576 205.832 37.576C204.488 37.576 203.368 37.384 202.472 37L201.992 36.808L202.328 34.936C202.616 35 202.952 35.032 203.336 35.032C204.168 35.032 204.888 34.648 205.496 33.88C206.136 33.112 206.616 32.136 206.936 30.952C207.576 28.584 207.896 26.392 207.896 24.376C207.896 21.496 207.304 20.056 206.12 20.056C205.192 20.056 204.2 20.424 203.144 21.16C203.016 23.4 202.36 27.32 201.176 32.92C199.992 38.52 199.4 43.032 199.4 46.456C197.672 47.16 195.448 47.592 192.728 47.752Z" stroke="#868686" stroke-width="2" mask="url(#path-1-outside-1)"/>
    </svg>
