<svg width="456" height="69" viewBox="0 0 456 69" fill="none" xmlns="http://www.w3.org/2000/svg">
<path d="M1.95572 58.44L6.49172 57.216V29.64C6.49172 28.392 6.39572 27.576 6.20372 27.192C6.05972 26.76 5.60372 26.376 4.83572 26.04L1.81172 24.312L2.02772 17.472H24.4917L24.8517 24.816L19.5237 26.256V36.768L35.9397 36.336V29.64C35.9397 28.392 35.8437 27.576 35.6517 27.192C35.4597 26.76 34.9557 26.376 34.1397 26.04L30.6117 24.024L30.9717 17.472H53.0757L53.3637 25.032L48.9717 26.256V54.336C48.9717 55.488 49.0437 56.232 49.1877 56.568C49.3797 56.904 49.8117 57.24 50.4837 57.576L53.4357 59.304L53.1477 66H31.2597L30.8997 58.584L35.9397 57.216V46.488L19.5237 45.768V54.336C19.5237 55.488 19.5957 56.232 19.7397 56.568C19.9317 56.904 20.3877 57.24 21.1077 57.576L24.9237 59.808L24.6357 66H2.31572L1.95572 58.44Z" stroke="white" stroke-width="2" mask="url(#path-1-outside-1)"/>
<path d="M79.6184 67.08C72.3224 67.08 66.7064 64.848 62.7704 60.384C58.8344 55.92 56.8664 49.608 56.8664 41.448C56.8664 36.264 57.8024 31.8 59.6744 28.056C61.5944 24.264 64.3544 21.384 67.9544 19.416C71.5544 17.4 75.8264 16.392 80.7704 16.392C86.3864 16.392 92.1704 17.664 98.1224 20.208C97.6904 24.528 96.9944 29.304 96.0344 34.536L90.5624 34.896L85.5944 27.624C83.4824 27 81.1544 26.688 78.6104 26.688C76.6904 26.688 74.8664 26.856 73.1384 27.192C72.3704 28.68 71.7464 30.648 71.2664 33.096C70.7864 35.544 70.5464 38.016 70.5464 40.512C70.5464 45.84 71.5064 49.8 73.4264 52.392C75.3944 54.936 78.4904 56.256 82.7144 56.352C84.3944 56.352 86.5064 56.112 89.0504 55.632C91.6424 55.104 94.1624 54.432 96.6104 53.616L98.8424 61.536C96.3464 63.168 93.3224 64.512 89.7704 65.568C86.2664 66.576 82.8824 67.08 79.6184 67.08Z" stroke="white" stroke-width="2" mask="url(#path-1-outside-1)"/>
<path d="M101.781 59.592L104.013 58.224L120.861 17.4L133.101 16.32L147.501 55.2C147.981 56.448 148.317 57.264 148.509 57.648C148.701 58.032 149.061 58.56 149.589 59.232L150.885 60.888L150.453 66H130.221L129.501 59.16L134.613 57.864L132.309 50.592L117.693 50.808L116.109 55.344C115.965 55.776 115.893 56.136 115.893 56.424C115.893 56.76 115.941 57.024 116.037 57.216C116.181 57.36 116.397 57.48 116.685 57.576L121.653 59.664L120.933 66H102.069L101.781 59.592ZM125.325 28.632L120.573 42.456L129.861 42.888L125.325 28.632Z" stroke="white" stroke-width="2" mask="url(#path-1-outside-1)"/>
<path d="M153.831 58.44L158.367 57.216V29.64C158.367 28.392 158.271 27.576 158.079 27.192C157.935 26.76 157.479 26.376 156.711 26.04L153.687 24.312L153.903 17.472H176.367L176.727 24.816L171.399 26.256V39.792L183.999 26.184C184.191 25.992 184.287 25.728 184.287 25.392C184.287 25.152 184.215 24.936 184.071 24.744L181.983 22.224L182.775 17.472H199.479L200.343 22.368L183.855 40.008L201.495 62.76V66H187.743L171.399 44.328V54.336C171.399 55.392 171.471 56.112 171.615 56.496C171.807 56.88 172.263 57.264 172.983 57.648L176.799 59.808L176.511 66H154.191L153.831 58.44Z" stroke="white" stroke-width="2" mask="url(#path-1-outside-1)"/>
<path d="M204.456 58.656L209.712 57.216V29.64C209.712 28.392 209.616 27.576 209.424 27.192C209.232 26.76 208.728 26.376 207.912 26.04L204.312 23.952L204.528 17.472L244.56 2C244.896 7.04 244.128 27.432 244.128 32.232L238.8 32.592L233.688 26.256L222.816 25.968V37.704L238.152 36.408V47.496L222.816 45.84V57.432L234.768 57.216L240.312 50.88L245.64 51.24C245.448 56.28 245.088 61.2 244.56 66H204.816L204.456 58.656Z" stroke="white" stroke-width="2" mask="url(#path-1-outside-1)"/>
<path d="M280.279 66.864C274.999 66.864 269.647 66.048 264.223 64.416C264.463 59.664 264.847 55.248 265.375 51.168L270.919 50.088L274.519 56.208C277.399 57.216 279.943 57.72 282.151 57.72C282.919 57.72 284.551 57.504 287.047 57.072C287.143 56.112 287.191 55.464 287.191 55.128C287.191 53.976 286.999 53.112 286.615 52.536C286.231 51.912 285.391 51.24 284.095 50.52C282.799 49.752 280.471 48.624 277.111 47.136C272.983 45.12 270.007 42.96 268.183 40.656C266.359 38.304 265.447 35.544 265.447 32.376C265.447 27.432 267.127 23.568 270.487 20.784C273.847 18 278.455 16.608 284.311 16.608C287.143 16.608 289.951 16.896 292.735 17.472C295.567 18 298.039 18.744 300.151 19.704C300.055 22.392 299.839 25.728 299.503 29.712L299.287 32.808L294.031 33.6L288.559 26.616C286.831 26.088 284.671 25.824 282.079 25.824C280.447 25.824 279.223 25.968 278.407 26.256C278.167 27.216 278.047 27.96 278.047 28.488C278.047 29.544 278.311 30.48 278.839 31.296C279.367 32.064 280.303 32.88 281.647 33.744C282.991 34.56 284.983 35.592 287.623 36.84C291.463 38.664 294.367 40.272 296.335 41.664C298.303 43.056 299.671 44.52 300.439 46.056C301.255 47.544 301.663 49.368 301.663 51.528C301.663 56.28 299.767 60.024 295.975 62.76C292.183 65.496 286.951 66.864 280.279 66.864Z" stroke="white" stroke-width="2" mask="url(#path-1-outside-1)"/>
<path d="M305.284 58.44L309.82 57.216V29.64C309.82 28.392 309.724 27.576 309.532 27.192C309.388 26.76 308.932 26.376 308.164 26.04L305.14 24.312L305.356 17.472H327.82L328.18 24.816L322.852 26.256V36.768L339.268 36.336V29.64C339.268 28.392 339.172 27.576 338.98 27.192C338.788 26.76 338.284 26.376 337.468 26.04L333.94 24.024L334.3 17.472H356.404L356.692 25.032L352.3 26.256V54.336C352.3 55.488 352.372 56.232 352.516 56.568C352.708 56.904 353.14 57.24 353.812 57.576L356.764 59.304L356.476 66H334.588L334.228 58.584L339.268 57.216V46.488L322.852 45.768V54.336C322.852 55.488 322.924 56.232 323.068 56.568C323.26 56.904 323.716 57.24 324.436 57.576L328.252 59.808L327.964 66H305.644L305.284 58.44Z" stroke="white" stroke-width="2" mask="url(#path-1-outside-1)"/>
<path d="M383.883 67.008C375.915 67.008 369.963 64.992 366.027 60.96C362.139 56.928 360.195 50.808 360.195 42.6C360.195 37.272 361.179 32.664 363.147 28.776C365.115 24.84 367.923 21.816 371.571 19.704C375.219 17.592 379.563 16.536 384.603 16.536C400.635 16.536 408.651 24.72 408.651 41.088C408.651 46.464 407.667 51.096 405.699 54.984C403.731 58.872 400.875 61.848 397.131 63.912C393.435 65.976 389.019 67.008 383.883 67.008ZM385.395 57.072C388.131 57.072 390.747 56.376 393.243 54.984C393.771 53.496 394.179 51.648 394.467 49.44C394.755 47.184 394.899 44.976 394.899 42.816C394.899 37.488 393.891 33.456 391.875 30.72C389.907 27.984 389.235 39.792 385.395 39.792C382.659 39.792 377.787 27.12 375.243 28.128C374.715 29.04 374.307 30.552 374.019 32.664C373.731 34.728 373.587 37.104 373.587 39.792C373.587 45.36 374.595 49.632 376.611 52.608C378.627 55.584 381.555 57.072 385.395 57.072Z" stroke="white" stroke-width="2" mask="url(#path-1-outside-1)"/>
<path d="M412.035 58.656L417.291 57.216V29.784C417.291 28.536 417.195 27.72 417.003 27.336C416.811 26.904 416.307 26.52 415.491 26.184L411.747 24.096L412.179 18.264C415.827 17.688 419.283 17.28 422.547 17.04C425.811 16.752 429.315 16.608 433.059 16.608C438.243 16.608 442.395 17.16 445.515 18.264C448.683 19.368 450.987 21.096 452.427 23.448C453.915 25.8 454.659 28.92 454.659 32.808C454.659 37.848 452.835 41.808 449.187 44.688C445.587 47.568 440.643 49.008 434.355 49.008L430.395 48.864V54.336C430.395 55.488 430.467 56.232 430.611 56.568C430.803 56.904 431.235 57.24 431.907 57.576L436.299 60.168L452.427 67.08L412.395 66L412.035 58.656ZM435.003 41.016C437.595 41.016 439.491 40.752 440.691 40.224C441.219 37.872 441.483 35.4 441.483 32.808C441.483 29.976 440.931 27.96 439.827 26.76C438.771 25.56 437.043 24.96 434.643 24.96C433.827 24.96 432.411 25.056 430.395 25.248V40.584C431.691 40.872 433.227 41.016 435.003 41.016Z" stroke="white" stroke-width="2" mask="url(#path-1-outside-1)"/>
</svg>
